<svg width="23" height="11" viewBox="0 0 23 11" fill="none" xmlns="http://www.w3.org/2000/svg">
<path d="M0.910706 4.6C0.55172 4.6 0.260706 4.89101 0.260706 5.25C0.260706 5.60899 0.55172 5.9 0.910706 5.9L0.910706 4.6ZM22.7989 5.70962C23.0527 5.45578 23.0527 5.04422 22.7989 4.79038L18.6623 0.653806C18.4085 0.399965 17.9969 0.399965 17.7431 0.653806C17.4892 0.907647 17.4892 1.3192 17.7431 1.57304L21.42 5.25L17.7431 8.92696C17.4892 9.1808 17.4892 9.59235 17.7431 9.84619C17.9969 10.1 18.4085 10.1 18.6623 9.84619L22.7989 5.70962ZM0.910706 5.25L0.910706 5.9L22.3393 5.9V5.25V4.6L0.910706 4.6L0.910706 5.25Z" fill="white"/>
</svg>
