<svg width="12" height="11" viewBox="0 0 12 11" fill="none" xmlns="http://www.w3.org/2000/svg">
<path d="M10.2334 4.64299L6 8.79729L1.76657 4.64299C1.58853 4.46495 1.31157 4.46495 1.13353 4.64299C0.95549 4.82103 0.95549 5.09799 1.13353 5.27603L5.68348 9.74685C5.76261 9.82598 5.88131 9.86554 6 9.86554C6.11869 9.86554 6.21761 9.82598 6.31652 9.74685L10.8665 5.27603C11.0445 5.09799 11.0445 4.82103 10.8665 4.64299C10.6884 4.46495 10.4115 4.46495 10.2334 4.64299Z" stroke="#445059"/>
<path d="M5.68348 5.87185C5.76261 5.95098 5.88131 5.99054 6 5.99054C6.11869 5.99054 6.21761 5.95098 6.31652 5.87185L10.8665 1.40103C11.0445 1.22299 11.0445 0.946033 10.8665 0.767992C10.6884 0.58995 10.4115 0.58995 10.2334 0.767992L6 4.92229L1.76657 0.767992C1.58853 0.58995 1.31157 0.58995 1.13353 0.767992C0.95549 0.946033 0.95549 1.22299 1.13353 1.40103L5.68348 5.87185Z" stroke="#95999C"/>
</svg>
