<svg width="15" height="15" viewBox="0 0 15 15" fill="none" xmlns="http://www.w3.org/2000/svg">
<path d="M14.0331 3.8056C13.0165 2.04526 11.3058 0.731215 9.32231 0.235348C8.67769 0.0865872 8.08264 0.012207 7.4876 0.012207C6.86777 0.012207 6.22314 0.0865872 5.60331 0.260141C3.64463 0.756009 1.95868 2.04527 0.966942 3.83039C0.322314 4.97088 0 6.21055 0 7.49981V7.67336C0.0247934 9.037 0.446281 10.3758 1.16529 11.5411C2.35537 13.4254 4.31405 14.6651 6.49587 14.913C6.79339 14.9626 7.1157 14.9874 7.4876 14.9874C7.78512 14.9874 8.10744 14.9626 8.40496 14.9378C10.6364 14.6651 12.595 13.4254 13.8099 11.5411C14.5537 10.4006 14.9504 9.06179 15 7.67336V7.49981C15 6.26014 14.6529 4.97088 14.0331 3.8056ZM12.2727 7.1527C12.1983 6.33452 12 5.54113 11.6777 4.79733H13.2645C13.6116 5.54113 13.8099 6.35931 13.8595 7.1527H12.2727ZM1.1157 7.1527C1.16529 6.33452 1.36364 5.54113 1.71074 4.79733H3.14876C2.82645 5.54113 2.65289 6.33452 2.57851 7.1527H1.1157ZM4.38843 4.79733H6.91736V7.1527H3.71901C3.79339 6.30973 4.01653 5.51634 4.38843 4.79733ZM9.7686 3.68163H8.03306V1.62378C8.60331 2.07006 9.17355 2.76427 9.7686 3.68163ZM6.94215 1.59898V3.68163H5.08264C5.70248 2.73948 6.32231 2.04526 6.94215 1.59898ZM6.94215 8.26841V10.6238H4.46281C4.06612 9.90477 3.81818 9.08659 3.7438 8.26841H6.94215ZM6.94215 11.7395V13.4502C6.32231 13.0287 5.70248 12.4337 5.15702 11.7395H6.94215ZM8.05785 13.4502V11.7147H9.94215C9.42149 12.4337 8.77686 13.0287 8.05785 13.4502ZM8.05785 10.6238V8.26841H11.1818C11.1322 9.08659 10.9339 9.87998 10.5868 10.6238H8.05785ZM8.05785 7.1527V4.79733H10.4628C10.8347 5.51634 11.0826 6.33452 11.157 7.1527H8.05785ZM12.595 3.68163H11.0826C10.5372 2.76427 9.99174 2.02047 9.44628 1.45022C10.7107 1.84692 11.8264 2.64031 12.595 3.68163ZM5.38017 1.47502C4.83471 2.04526 4.28926 2.78907 3.7438 3.65684H2.40496C3.14876 2.6651 4.19008 1.8965 5.38017 1.47502ZM1.1405 8.26841H2.60331C2.67769 9.08659 2.87603 9.87998 3.19835 10.6238H1.90909C1.4876 9.87998 1.23967 9.08659 1.1405 8.26841ZM2.70248 11.7395H3.81818C4.21488 12.3841 4.71074 12.9791 5.20661 13.475C4.23967 13.1031 3.3719 12.5081 2.70248 11.7395ZM9.94215 13.4006C10.438 12.9296 10.8843 12.3593 11.2314 11.7643C11.2314 11.7643 11.2314 11.7395 11.2562 11.7395H12.2727C11.6281 12.4585 10.8347 13.0287 9.94215 13.4006ZM13.0661 10.6238H11.7769C12.0744 9.87998 12.2479 9.08659 12.2727 8.26841H13.8099C13.7355 9.08659 13.4628 9.87998 13.0661 10.6238Z" fill="white"/>
</svg>
