<svg width="46" height="47" viewBox="0 0 46 47" fill="none" xmlns="http://www.w3.org/2000/svg">
<rect x="0.195526" y="0.568359" width="45.5978" height="45.5978" rx="8" fill="#F3F3F3"/>
<path d="M23.0598 16.271C23.102 16.2711 23.1636 16.2716 23.2425 16.272C23.4004 16.2727 23.6272 16.2739 23.9036 16.2769C24.4563 16.2828 25.2096 16.295 26.0071 16.3188C26.8033 16.3427 27.6506 16.3787 28.3909 16.4331C29.11 16.486 29.7927 16.5603 30.222 16.6763H30.2239C30.7331 16.8152 31.1968 17.0858 31.5686 17.4604L31.7034 17.605C32.0053 17.9519 32.2246 18.364 32.343 18.8101L32.4163 19.1235C32.5765 19.8889 32.6555 20.8788 32.6966 21.6763C32.7206 22.143 32.7326 22.5644 32.7386 22.8687C32.7416 23.021 32.7427 23.1451 32.7434 23.231C32.7438 23.2738 32.7443 23.3076 32.7444 23.3306V23.4038C32.7443 23.4268 32.7438 23.46 32.7434 23.5024C32.7427 23.5883 32.7416 23.7124 32.7386 23.8647C32.7326 24.169 32.7205 24.5903 32.6966 25.0571C32.6498 25.9681 32.5531 27.1299 32.343 27.9214L32.344 27.9224C32.2087 28.4326 31.9416 28.8992 31.5696 29.2739C31.1977 29.6484 30.7332 29.9184 30.2239 30.0571L30.2229 30.0581C29.7935 30.174 29.1102 30.2474 28.3909 30.3003C27.6505 30.3547 26.8033 30.3907 26.0071 30.4146C25.2095 30.4384 24.4563 30.4506 23.9036 30.4565C23.6272 30.4595 23.4004 30.4607 23.2425 30.4614C23.1636 30.4618 23.102 30.4623 23.0598 30.4624H22.929C22.8869 30.4623 22.8252 30.4618 22.7464 30.4614C22.5885 30.4607 22.3616 30.4595 22.0852 30.4565C21.5325 30.4506 20.7792 30.4384 19.9817 30.4146C19.1856 30.3907 18.3382 30.3547 17.5979 30.3003C16.8789 30.2474 16.1961 30.174 15.7669 30.0581L15.7649 30.0571C15.2558 29.9182 14.7921 29.6475 14.4202 29.2729C14.0485 28.8985 13.7812 28.4333 13.6458 27.9233L13.5725 27.6099C13.4124 26.8445 13.3333 25.8546 13.2923 25.0571C13.2682 24.5903 13.2563 24.169 13.2503 23.8647C13.2473 23.7124 13.2461 23.5883 13.2454 23.5024C13.245 23.46 13.2445 23.4268 13.2444 23.4038V23.3306C13.2445 23.3076 13.245 23.2738 13.2454 23.231C13.2461 23.1451 13.2473 23.021 13.2503 22.8687C13.2563 22.5644 13.2682 22.143 13.2923 21.6763C13.3392 20.7647 13.435 19.6017 13.6458 18.8101C13.7812 18.3003 14.0487 17.8349 14.4202 17.4604C14.7918 17.086 15.2551 16.8153 15.7639 16.6763H15.7659C16.1953 16.5603 16.8786 16.486 17.5979 16.4331C18.3384 16.3787 19.1855 16.3427 19.9817 16.3188C20.7793 16.295 21.5325 16.2828 22.0852 16.2769C22.3616 16.2739 22.5885 16.2727 22.7464 16.272C22.8252 16.2716 22.8869 16.2711 22.929 16.271H23.0598ZM21.9036 24.7544L24.3411 23.3667L21.9036 21.978V24.7544Z" stroke="#15191C" stroke-width="1.5"/>
</svg>
