<svg width="46" height="47" viewBox="0 0 46 47" fill="none" xmlns="http://www.w3.org/2000/svg">
<rect y="0.568359" width="45.5978" height="45.5978" rx="8" fill="#F3F3F3"/>
<g clip-path="url(#clip0_631_663)">
<path d="M22.7994 19.3672C24.9875 19.3672 26.7681 21.17 26.7681 23.3672C26.7681 25.5933 24.9897 27.3672 22.7994 27.3672C20.5778 27.3672 18.7994 25.5621 18.7994 23.3672C18.7994 21.1456 20.6045 19.3672 22.7994 19.3672ZM22.7994 19.7734C20.8012 19.7734 19.2056 21.4068 19.2056 23.3672C19.2056 25.3654 20.839 26.9609 22.7994 26.9609C24.7696 26.9609 26.3619 25.3242 26.3619 23.3672C26.3619 21.3756 24.7663 19.7734 22.7994 19.7734Z" fill="#15191C" stroke="#15191C"/>
<path d="M27.4864 16.9922C26.8614 16.9922 26.3926 17.4922 26.3926 18.0859C26.3926 18.6797 26.8926 19.1797 27.4864 19.1797C28.0801 19.1797 28.5801 18.6797 28.5801 18.0859C28.5801 17.4922 28.1114 16.9922 27.4864 16.9922Z" fill="#15191C"/>
<path d="M27.4554 13.9297H18.1429C15.4866 13.9297 13.3616 16.0547 13.3616 18.7109V28.0547C13.3616 30.6797 15.5179 32.8359 18.1429 32.8359H27.4866C30.1116 32.8359 32.2679 30.6797 32.2679 28.0547V18.7109C32.2679 16.0547 30.1116 13.9297 27.4554 13.9297ZM30.8616 28.0234C30.8616 29.8984 29.3616 31.3984 27.4866 31.3984H18.1429C16.2679 31.3984 14.7679 29.8984 14.7679 28.0234V18.7109C14.7679 16.8359 16.2991 15.3359 18.1429 15.3359H27.4554C29.3304 15.3359 30.8304 16.8672 30.8304 18.7109V28.0234H30.8616Z" fill="#15191C" stroke="#15191C" stroke-width="0.5"/>
</g>
<defs>
<clipPath id="clip0_631_663">
<rect width="20" height="20" fill="white" transform="translate(12.7989 13.3672)"/>
</clipPath>
</defs>
</svg>
