<svg width="15" height="17" viewBox="0 0 15 17" fill="none" xmlns="http://www.w3.org/2000/svg">
<path fill-rule="evenodd" clip-rule="evenodd" d="M7.5 0.097168C9.48912 0.097168 11.3968 0.887344 12.8033 2.29387C14.2098 3.70039 15 5.60804 15 7.59717C15 10.1588 13.6033 12.2555 12.1317 13.7597C11.3964 14.5031 10.5941 15.177 9.735 15.773L9.38 16.0147L9.21333 16.1255L8.89917 16.3255L8.61917 16.4963L8.2725 16.698C8.0372 16.8323 7.77094 16.903 7.5 16.903C7.22906 16.903 6.9628 16.8323 6.7275 16.698L6.38083 16.4963L5.9475 16.2297L5.7875 16.1255L5.44583 15.898C4.51903 15.2709 3.65575 14.5548 2.86833 13.7597C1.39667 12.2547 0 10.1588 0 7.59717C0 5.60804 0.790176 3.70039 2.1967 2.29387C3.60322 0.887344 5.51088 0.097168 7.5 0.097168ZM7.5 1.76383C5.9529 1.76383 4.46917 2.37842 3.37521 3.47238C2.28125 4.56634 1.66667 6.05007 1.66667 7.59717C1.66667 9.53217 2.72667 11.2305 4.05917 12.5938C4.63211 13.1738 5.25138 13.7061 5.91083 14.1855L6.2925 14.4572C6.41583 14.5433 6.53444 14.6233 6.64833 14.6972L6.97333 14.9055L7.25917 15.0797L7.5 15.2205L7.87917 14.9963L8.185 14.8047C8.34778 14.7013 8.52194 14.5855 8.7075 14.4572L9.08917 14.1855C9.74862 13.7061 10.3679 13.1738 10.9408 12.5938C12.2733 11.2313 13.3333 9.53217 13.3333 7.59717C13.3333 6.05007 12.7188 4.56634 11.6248 3.47238C10.5308 2.37842 9.0471 1.76383 7.5 1.76383ZM7.5 4.26383C8.38406 4.26383 9.2319 4.61502 9.85702 5.24015C10.4821 5.86527 10.8333 6.71311 10.8333 7.59717C10.8333 8.48122 10.4821 9.32907 9.85702 9.95419C9.2319 10.5793 8.38406 10.9305 7.5 10.9305C6.61594 10.9305 5.7681 10.5793 5.14298 9.95419C4.51786 9.32907 4.16667 8.48122 4.16667 7.59717C4.16667 6.71311 4.51786 5.86527 5.14298 5.24015C5.7681 4.61502 6.61594 4.26383 7.5 4.26383ZM7.5 5.9305C7.05797 5.9305 6.63405 6.1061 6.32149 6.41866C6.00893 6.73122 5.83333 7.15514 5.83333 7.59717C5.83333 8.0392 6.00893 8.46312 6.32149 8.77568C6.63405 9.08824 7.05797 9.26383 7.5 9.26383C7.94203 9.26383 8.36595 9.08824 8.67851 8.77568C8.99107 8.46312 9.16667 8.0392 9.16667 7.59717C9.16667 7.15514 8.99107 6.73122 8.67851 6.41866C8.36595 6.1061 7.94203 5.9305 7.5 5.9305Z" fill="white"/>
</svg>
