<svg width="200" height="33" viewBox="0 0 200 33" fill="none" xmlns="http://www.w3.org/2000/svg">
<path d="M124.384 2.28796H134.835C136.88 2.28796 138.442 2.82736 139.521 3.90616C140.599 4.96249 141.139 6.52451 141.139 8.59221C141.139 9.80587 140.858 10.8622 140.296 11.7612C139.734 12.6377 138.992 13.2895 138.071 13.7165C140.656 14.3908 141.948 16.245 141.948 19.2791C141.948 20.6051 141.656 21.7738 141.071 22.7852C140.51 23.7741 139.723 24.5383 138.712 25.0777C137.723 25.5946 136.621 25.8531 135.408 25.8531H124.384V2.28796ZM134.632 12.6714C135.891 12.6714 136.846 12.3343 137.498 11.6601C138.172 10.9633 138.509 9.96319 138.509 8.65964C138.509 7.17628 138.183 6.11996 137.532 5.49065C136.88 4.83888 135.823 4.51299 134.363 4.51299H127.013V12.6714H134.632ZM134.835 23.628C136.318 23.628 137.43 23.2909 138.172 22.6167C138.936 21.9424 139.318 20.8074 139.318 19.2117C139.318 17.6609 138.925 16.5596 138.138 15.9078C137.352 15.2336 136.127 14.8965 134.464 14.8965H127.013V23.628H134.835Z" fill="#F3F3F3"/>
<path d="M151.645 26.3588C149.689 26.3588 148.138 25.8755 146.992 24.9091C145.868 23.9202 145.307 22.5717 145.307 20.8636C145.307 19.0881 145.857 17.7283 146.958 16.7844C148.06 15.8179 149.656 15.3347 151.746 15.3347C154.083 15.3347 156.095 15.8179 157.78 16.7844V15.5707C157.78 14.1098 157.364 13.031 156.533 12.3343C155.701 11.6151 154.386 11.2555 152.588 11.2555C150.678 11.2555 148.914 11.6151 147.296 12.3343V10.143C147.97 9.85082 148.824 9.61483 149.858 9.43503C150.892 9.25523 151.881 9.16533 152.824 9.16533C155.387 9.16533 157.286 9.74968 158.522 10.9184C159.758 12.0646 160.376 13.6603 160.376 15.7056V25.8531H157.949V23.7629C156.533 25.4935 154.431 26.3588 151.645 26.3588ZM152.285 24.2349C153.499 24.2349 154.589 23.9989 155.555 23.5269C156.544 23.0324 157.286 22.347 157.78 21.4704V18.8746C156.904 18.3576 156.027 17.9868 155.151 17.762C154.297 17.5148 153.33 17.3912 152.251 17.3912C150.723 17.3912 149.611 17.6834 148.914 18.2677C148.24 18.8296 147.902 19.6949 147.902 20.8636C147.902 23.1111 149.363 24.2349 152.285 24.2349Z" fill="#F3F3F3"/>
<path d="M164.911 9.67102H167.44V12.0983C168.226 11.0869 169.182 10.3453 170.305 9.87329C171.451 9.40131 172.665 9.16533 173.946 9.16533C176.081 9.16533 177.666 9.7272 178.7 10.851C179.756 11.9747 180.284 13.4805 180.284 15.3684V25.8531H177.688V15.6044C177.688 14.211 177.351 13.1434 176.677 12.4017C176.003 11.6376 174.924 11.2555 173.441 11.2555C170.946 11.2555 168.968 12.3793 167.507 14.6268V25.8531H164.911C164.911 19.5336 164.911 15.9905 164.911 9.67102Z" fill="#F3F3F3"/>
<path d="M184.829 0.939453H187.425V25.8531H184.829V0.939453ZM187.998 17.6946L195.921 9.67102H199.225L191.268 17.6946L200 25.8531H196.696L187.998 17.6946Z" fill="#F3F3F3"/>
<path d="M12.6759 25.6187C10.2936 25.6187 8.13597 25.1018 6.20312 24.0679C4.29274 23.0341 2.77567 21.5957 1.65192 19.7527C0.550639 17.8873 0 15.7522 0 13.3473C0 10.9425 0.550639 8.80737 1.65192 6.94194C2.77567 5.07651 4.29274 3.62687 6.20312 2.59301C8.13597 1.55916 10.2936 1.04223 12.6759 1.04223C15.0358 1.04223 17.171 1.55916 19.0813 2.59301C21.0142 3.62687 22.5313 5.07651 23.6325 6.94194C24.7338 8.80737 25.2845 10.9425 25.2845 13.3473C25.2845 15.7522 24.7338 17.8873 23.6325 19.7527C22.5313 21.5957 21.0142 23.0341 19.0813 24.0679C17.171 25.1018 15.0358 25.6187 12.6759 25.6187ZM12.6759 20.0224C13.8671 20.0224 14.9572 19.7527 15.9461 19.2133C16.935 18.6739 17.7216 17.8985 18.3059 16.8872C18.8903 15.8758 19.1825 14.6958 19.1825 13.3473C19.1825 11.9988 18.8903 10.8301 18.3059 9.84122C17.7441 8.82985 16.9687 8.05446 15.9798 7.51505C14.9909 6.95318 13.8896 6.67224 12.6759 6.67224C11.4398 6.67224 10.3273 6.95318 9.33839 7.51505C8.34949 8.05446 7.56286 8.82985 6.97851 9.84122C6.41663 10.8301 6.13569 11.9988 6.13569 13.3473C6.13569 14.6958 6.41663 15.8758 6.97851 16.8872C7.56286 17.8985 8.34949 18.6739 9.33839 19.2133C10.3498 19.7527 11.4623 20.0224 12.6759 20.0224Z" fill="#F3F3F3"/>
<path d="M27.6377 8.93098H33.3689V10.9537C33.9982 10.2345 34.886 9.6839 36.0322 9.30182C37.1784 8.89727 38.4482 8.695 39.8417 8.695V13.2462C38.3584 13.2462 37.0436 13.4597 35.8973 13.8867C34.7736 14.3138 33.9982 14.9543 33.5712 15.8084V25.113H27.6377V8.93098Z" fill="white"/>
<path d="M46.1186 25.6187C44.0958 25.6187 42.4551 25.1355 41.1965 24.1691C39.9604 23.1802 39.3423 21.8092 39.3423 20.0561C39.3423 18.2357 39.9379 16.8422 41.1291 15.8758C42.3428 14.8869 44.0733 14.3924 46.3208 14.3924C47.1974 14.3924 48.0739 14.4936 48.9504 14.6958C49.827 14.8756 50.5799 15.1229 51.2092 15.4375V15.1004C51.2092 13.3698 49.7932 12.5045 46.9614 12.5045C44.9836 12.5045 43.1743 12.8866 41.5337 13.6507V9.57152C42.2529 9.2344 43.1968 8.9647 44.3655 8.76242C45.5342 8.53767 46.7479 8.42529 48.0065 8.42529C51.0181 8.42529 53.2881 9.03212 54.8164 10.2458C56.3672 11.437 57.1426 13.1113 57.1426 15.269V25.113H51.58V23.7308C50.9732 24.3152 50.209 24.7759 49.2876 25.113C48.3661 25.4502 47.3097 25.6187 46.1186 25.6187ZM47.8716 21.9778C48.5684 21.9778 49.2201 21.8429 49.827 21.5732C50.4338 21.281 50.8945 20.9102 51.2092 20.4607V19.0448C50.2427 18.393 49.1415 18.0671 47.9053 18.0671C47.1187 18.0671 46.5119 18.2357 46.0849 18.5728C45.6578 18.9099 45.4443 19.4044 45.4443 20.0561C45.4443 20.663 45.6466 21.1349 46.0511 21.4721C46.4782 21.8092 47.085 21.9778 47.8716 21.9778Z" fill="white"/>
<path d="M60.0005 8.93098H65.7317V10.7178C66.4284 9.9536 67.2712 9.38049 68.2601 8.99841C69.249 8.61633 70.2829 8.42529 71.3617 8.42529C73.6317 8.42529 75.306 9.02088 76.3848 10.2121C77.4861 11.3808 78.0368 12.9765 78.0368 14.9993V25.113H72.1033V15.7746C72.1033 13.9542 71.2718 13.0439 69.6086 13.0439C68.8445 13.0439 68.1477 13.2237 67.5184 13.5833C66.8891 13.9204 66.361 14.4486 65.9339 15.1678V25.113H60.0005C60.0005 18.7935 60.0005 15.2505 60.0005 8.93098Z" fill="white"/>
<path d="M89.7053 32.8669C88.6265 32.8669 87.5364 32.7658 86.4352 32.5635C85.3564 32.3612 84.4236 32.0915 83.637 31.7544V27.6415C85.4125 28.4056 87.4353 28.7877 89.7053 28.7877C91.346 28.7877 92.5259 28.4506 93.2451 27.7763C93.9868 27.1021 94.3576 26.1132 94.3576 24.8096V23.832C93.7058 24.3938 92.8967 24.8321 91.9303 25.1467C90.9864 25.4614 89.975 25.6187 88.8962 25.6187C87.1881 25.6187 85.6822 25.2591 84.3787 24.5399C83.0751 23.8207 82.0525 22.8093 81.3108 21.5058C80.5916 20.2022 80.232 18.7076 80.232 17.022C80.232 15.3139 80.5916 13.8081 81.3108 12.5045C82.03 11.201 83.0414 10.2008 84.345 9.5041C85.6485 8.7849 87.1431 8.42529 88.8287 8.42529C91.1437 8.42529 93.0541 9.13326 94.5599 10.5492V8.93098H100.291V24.0005C100.291 26.8099 99.4257 28.99 97.6952 30.5408C95.9871 32.0915 93.3238 32.8669 89.7053 32.8669ZM90.3795 21.0338C91.301 21.0338 92.1213 20.7978 92.8405 20.3258C93.5597 19.8539 94.0654 19.2246 94.3576 18.4379V15.6061C94.043 14.8195 93.526 14.2014 92.8068 13.7519C92.0876 13.2799 91.2785 13.0439 90.3795 13.0439C89.1659 13.0439 88.1882 13.4035 87.4465 14.1227C86.7049 14.8195 86.334 15.7746 86.334 16.9883C86.334 18.2244 86.7049 19.2133 87.4465 19.955C88.1882 20.6742 89.1659 21.0338 90.3795 21.0338Z" fill="white"/>
<path d="M112.833 25.6187C109.664 25.6187 107.17 24.877 105.349 23.3937C103.551 21.9103 102.652 19.8089 102.652 17.0894C102.652 14.4149 103.45 12.3022 105.046 10.7515C106.664 9.20068 108.99 8.42529 112.024 8.42529C113.957 8.42529 115.609 8.79613 116.98 9.53781C118.374 10.257 119.419 11.2572 120.115 12.5382C120.835 13.7968 121.194 15.224 121.194 16.8197V19.0111H108.282C108.507 19.9101 109.069 20.5618 109.968 20.9664C110.867 21.3709 112.092 21.5732 113.643 21.5732C114.699 21.5732 115.778 21.4833 116.879 21.3035C118.003 21.1237 118.969 20.8765 119.778 20.5618V24.4725C118.947 24.8096 117.902 25.0793 116.643 25.2816C115.407 25.5063 114.137 25.6187 112.833 25.6187ZM115.598 15.3027C115.508 14.4261 115.148 13.7406 114.519 13.2462C113.89 12.7517 113.024 12.5045 111.923 12.5045C110.844 12.5045 109.99 12.763 109.361 13.2799C108.732 13.7744 108.372 14.4486 108.282 15.3027H115.598Z" fill="white"/>
</svg>
