<svg width="201" height="32" viewBox="0 0 201 32" fill="none" xmlns="http://www.w3.org/2000/svg">
<path d="M124.759 1.38476H135.21C137.255 1.38476 138.817 1.92416 139.896 3.00296C140.974 4.05929 141.514 5.62131 141.514 7.68901C141.514 8.90267 141.233 9.959 140.671 10.858C140.109 11.7345 139.367 12.3863 138.446 12.8133C141.031 13.4876 142.323 15.3418 142.323 18.3759C142.323 19.7019 142.031 20.8706 141.446 21.882C140.885 22.8709 140.098 23.6351 139.087 24.1745C138.098 24.6914 136.996 24.9499 135.783 24.9499H124.759V1.38476ZM135.007 11.7682C136.266 11.7682 137.221 11.4311 137.873 10.7569C138.547 10.0601 138.884 9.05999 138.884 7.75644C138.884 6.27309 138.558 5.21676 137.907 4.58746C137.255 3.93568 136.199 3.60979 134.738 3.60979H127.388V11.7682H135.007ZM135.21 22.7248C136.693 22.7248 137.805 22.3877 138.547 21.7135C139.311 21.0392 139.693 19.9042 139.693 18.3085C139.693 16.7577 139.3 15.6564 138.513 15.0046C137.727 14.3304 136.502 13.9933 134.839 13.9933H127.388V22.7248H135.21Z" fill="#3C4C59"/>
<path d="M152.02 25.4556C150.064 25.4556 148.513 24.9723 147.367 24.0059C146.243 23.017 145.682 21.6685 145.682 19.9604C145.682 18.1849 146.232 16.8251 147.333 15.8812C148.435 14.9147 150.031 14.4315 152.121 14.4315C154.458 14.4315 156.47 14.9147 158.155 15.8812V14.6675C158.155 13.2066 157.739 12.1278 156.908 11.4311C156.076 10.7119 154.761 10.3523 152.963 10.3523C151.053 10.3523 149.289 10.7119 147.671 11.4311V9.23979C148.345 8.94762 149.199 8.71163 150.233 8.53183C151.267 8.35203 152.256 8.26213 153.199 8.26213C155.762 8.26213 157.661 8.84648 158.897 10.0152C160.133 11.1614 160.751 12.7571 160.751 14.8024V24.9499H158.324V22.8597C156.908 24.5903 154.806 25.4556 152.02 25.4556ZM152.66 23.3317C153.874 23.3317 154.964 23.0957 155.93 22.6237C156.919 22.1292 157.661 21.4438 158.155 20.5672V17.9714C157.279 17.4544 156.402 17.0836 155.526 16.8588C154.672 16.6116 153.705 16.488 152.626 16.488C151.098 16.488 149.986 16.7802 149.289 17.3645C148.615 17.9264 148.277 18.7917 148.277 19.9604C148.277 22.2079 149.738 23.3317 152.66 23.3317Z" fill="#3C4C59"/>
<path d="M165.286 8.76782H167.815V11.1951C168.601 10.1837 169.557 9.44207 170.68 8.97009C171.826 8.49812 173.04 8.26213 174.321 8.26213C176.456 8.26213 178.041 8.82401 179.075 9.94776C180.131 11.0715 180.659 12.5773 180.659 14.4652V24.9499H178.063V14.7012C178.063 13.3078 177.726 12.2402 177.052 11.4985C176.378 10.7344 175.299 10.3523 173.816 10.3523C171.321 10.3523 169.343 11.4761 167.882 13.7236V24.9499H165.286V8.76782Z" fill="#3C4C59"/>
<path d="M185.204 0.0362549H187.8V24.9499H185.204V0.0362549ZM188.373 16.7914L196.296 8.76782H199.6L191.643 16.7914L200.375 24.9499H197.071L188.373 16.7914Z" fill="#3C4C59"/>
<path d="M13.0509 24.7155C10.6686 24.7155 8.51097 24.1986 6.57812 23.1647C4.66774 22.1309 3.15067 20.6925 2.02692 18.8495C0.925639 16.9841 0.375 14.849 0.375 12.4441C0.375 10.0393 0.925639 7.90417 2.02692 6.03874C3.15067 4.17331 4.66774 2.72367 6.57812 1.68982C8.51097 0.655963 10.6686 0.139036 13.0509 0.139036C15.4108 0.139036 17.546 0.655963 19.4563 1.68982C21.3892 2.72367 22.9063 4.17331 24.0075 6.03874C25.1088 7.90417 25.6595 10.0393 25.6595 12.4441C25.6595 14.849 25.1088 16.9841 24.0075 18.8495C22.9063 20.6925 21.3892 22.1309 19.4563 23.1647C17.546 24.1986 15.4108 24.7155 13.0509 24.7155ZM13.0509 19.1192C14.2421 19.1192 15.3322 18.8495 16.3211 18.3101C17.31 17.7707 18.0966 16.9953 18.6809 15.984C19.2653 14.9726 19.5575 13.7926 19.5575 12.4441C19.5575 11.0956 19.2653 9.92693 18.6809 8.93803C18.1191 7.92665 17.3437 7.15126 16.3548 6.61186C15.3659 6.04998 14.2646 5.76904 13.0509 5.76904C11.8148 5.76904 10.7023 6.04998 9.71339 6.61186C8.72449 7.15126 7.93786 7.92665 7.35351 8.93803C6.79163 9.92693 6.51069 11.0956 6.51069 12.4441C6.51069 13.7926 6.79163 14.9726 7.35351 15.984C7.93786 16.9953 8.72449 17.7707 9.71339 18.3101C10.7248 18.8495 11.8373 19.1192 13.0509 19.1192Z" fill="#F15A24"/>
<path d="M28.0127 8.02779H33.7439V10.0505C34.3732 9.33134 35.261 8.7807 36.4072 8.39862C37.5534 7.99407 38.8233 7.7918 40.2167 7.7918V12.343C38.7334 12.343 37.4186 12.5565 36.2723 12.9835C35.1486 13.4106 34.3732 14.0511 33.9462 14.9052V24.2098H28.0127V8.02779Z" fill="#F15A24"/>
<path d="M46.4936 24.7155C44.4708 24.7155 42.8301 24.2323 41.5715 23.2659C40.3354 22.277 39.7173 20.906 39.7173 19.1529C39.7173 17.3325 40.3129 15.939 41.5041 14.9726C42.7178 13.9837 44.4483 13.4892 46.6958 13.4892C47.5724 13.4892 48.4489 13.5904 49.3254 13.7926C50.202 13.9724 50.9549 14.2197 51.5842 14.5343V14.1972C51.5842 12.4666 50.1682 11.6013 47.3364 11.6013C45.3586 11.6013 43.5493 11.9834 41.9087 12.7476V8.66832C42.6279 8.3312 43.5718 8.0615 44.7405 7.85922C45.9092 7.63447 47.1229 7.5221 48.3815 7.5221C51.3931 7.5221 53.6631 8.12892 55.1914 9.34258C56.7422 10.5338 57.5176 12.2081 57.5176 14.3658V24.2098H51.955V22.8276C51.3482 23.412 50.584 23.8727 49.6626 24.2098C48.7411 24.547 47.6848 24.7155 46.4936 24.7155ZM48.2466 21.0746C48.9434 21.0746 49.5951 20.9397 50.202 20.67C50.8088 20.3778 51.2695 20.007 51.5842 19.5575V18.1416C50.6177 17.4898 49.5165 17.1639 48.2803 17.1639C47.4937 17.1639 46.8869 17.3325 46.4599 17.6696C46.0328 18.0067 45.8193 18.5012 45.8193 19.1529C45.8193 19.7598 46.0216 20.2317 46.4261 20.5689C46.8532 20.906 47.46 21.0746 48.2466 21.0746Z" fill="#F15A24"/>
<path d="M60.3755 8.02779H66.1067V9.81455C66.8034 9.0504 67.6462 8.47729 68.6351 8.09521C69.624 7.71313 70.6579 7.5221 71.7367 7.5221C74.0067 7.5221 75.681 8.11769 76.7598 9.30886C77.8611 10.4776 78.4118 12.0733 78.4118 14.0961V24.2098H72.4783V14.8714C72.4783 13.051 71.6468 12.1407 69.9836 12.1407C69.2195 12.1407 68.5227 12.3205 67.8934 12.6801C67.2641 13.0173 66.736 13.5454 66.3089 14.2646V24.2098H60.3755V8.02779Z" fill="#F15A24"/>
<path d="M90.0803 31.9637C89.0015 31.9637 87.9114 31.8626 86.8102 31.6603C85.7314 31.458 84.7986 31.1883 84.012 30.8512V26.7383C85.7875 27.5024 87.8103 27.8845 90.0803 27.8845C91.721 27.8845 92.9009 27.5474 93.6201 26.8731C94.3618 26.1989 94.7326 25.21 94.7326 23.9064V22.9288C94.0808 23.4906 93.2717 23.9289 92.3053 24.2435C91.3614 24.5582 90.35 24.7155 89.2712 24.7155C87.5631 24.7155 86.0572 24.3559 84.7537 23.6367C83.4501 22.9175 82.4275 21.9061 81.6858 20.6026C80.9666 19.299 80.607 17.8044 80.607 16.1188C80.607 14.4107 80.9666 12.9049 81.6858 11.6013C82.405 10.2978 83.4164 9.29763 84.72 8.6009C86.0235 7.8817 87.5181 7.5221 89.2037 7.5221C91.5187 7.5221 93.4291 8.23006 94.9349 9.64599V8.02779H100.666V23.0973C100.666 25.9067 99.8007 28.0868 98.0702 29.6376C96.3621 31.1883 93.6988 31.9637 90.0803 31.9637ZM90.7545 20.1306C91.676 20.1306 92.4963 19.8946 93.2155 19.4226C93.9347 18.9507 94.4404 18.3214 94.7326 17.5347V14.7029C94.418 13.9163 93.901 13.2982 93.1818 12.8487C92.4626 12.3767 91.6535 12.1407 90.7545 12.1407C89.5409 12.1407 88.5632 12.5003 87.8215 13.2195C87.0798 13.9163 86.709 14.8714 86.709 16.0851C86.709 17.3212 87.0798 18.3101 87.8215 19.0518C88.5632 19.771 89.5409 20.1306 90.7545 20.1306Z" fill="#F15A24"/>
<path d="M113.208 24.7155C110.039 24.7155 107.545 23.9738 105.724 22.4905C103.926 21.0071 103.027 18.9057 103.027 16.1862C103.027 13.5117 103.825 11.399 105.421 9.84827C107.039 8.29749 109.365 7.5221 112.399 7.5221C114.332 7.5221 115.984 7.89294 117.355 8.63461C118.749 9.35382 119.794 10.354 120.49 11.635C121.21 12.8936 121.569 14.3208 121.569 15.9165V18.1079H108.657C108.882 19.0069 109.444 19.6586 110.343 20.0632C111.242 20.4677 112.467 20.67 114.018 20.67C115.074 20.67 116.153 20.5801 117.254 20.4003C118.378 20.2205 119.344 19.9733 120.153 19.6586V23.5693C119.322 23.9064 118.277 24.1761 117.018 24.3784C115.782 24.6031 114.512 24.7155 113.208 24.7155ZM115.973 14.3995C115.883 13.5229 115.523 12.8375 114.894 12.343C114.265 11.8485 113.399 11.6013 112.298 11.6013C111.219 11.6013 110.365 11.8598 109.736 12.3767C109.107 12.8712 108.747 13.5454 108.657 14.3995H115.973Z" fill="#F15A24"/>
</svg>
