<svg width="257" height="64" viewBox="0 0 257 64" fill="none" xmlns="http://www.w3.org/2000/svg">
<path d="M161.354 17.8205H173.754C176.18 17.8205 178.034 18.4605 179.314 19.7405C180.594 20.9938 181.234 22.8472 181.234 25.3005C181.234 26.7405 180.901 27.9938 180.234 29.0605C179.567 30.1005 178.687 30.8738 177.594 31.3805C180.66 32.1805 182.194 34.3805 182.194 37.9805C182.194 39.5538 181.847 40.9405 181.154 42.1405C180.487 43.3138 179.554 44.2205 178.354 44.8605C177.18 45.4738 175.874 45.7805 174.434 45.7805H161.354V17.8205ZM173.514 30.1405C175.007 30.1405 176.141 29.7405 176.914 28.9405C177.714 28.1138 178.114 26.9272 178.114 25.3805C178.114 23.6205 177.727 22.3672 176.954 21.6205C176.18 20.8472 174.927 20.4605 173.194 20.4605H164.474V30.1405H173.514ZM173.754 43.1405C175.514 43.1405 176.834 42.7405 177.714 41.9405C178.62 41.1405 179.074 39.7938 179.074 37.9005C179.074 36.0605 178.607 34.7538 177.674 33.9805C176.74 33.1805 175.287 32.7805 173.314 32.7805H164.474V43.1405H173.754Z" fill="#2C343A"/>
<path d="M193.699 46.3805C191.379 46.3805 189.539 45.8072 188.179 44.6605C186.846 43.4872 186.179 41.8872 186.179 39.8605C186.179 37.7538 186.832 36.1405 188.139 35.0205C189.446 33.8738 191.339 33.3005 193.819 33.3005C196.592 33.3005 198.979 33.8738 200.979 35.0205V33.5805C200.979 31.8472 200.486 30.5672 199.499 29.7405C198.512 28.8872 196.952 28.4605 194.819 28.4605C192.552 28.4605 190.459 28.8872 188.539 29.7405V27.1405C189.339 26.7938 190.352 26.5138 191.579 26.3005C192.805 26.0872 193.979 25.9805 195.099 25.9805C198.139 25.9805 200.392 26.6738 201.859 28.0605C203.326 29.4205 204.059 31.3138 204.059 33.7405V45.7805H201.179V43.3005C199.499 45.3538 197.006 46.3805 193.699 46.3805ZM194.459 43.8605C195.899 43.8605 197.192 43.5805 198.339 43.0205C199.512 42.4338 200.392 41.6205 200.979 40.5805V37.5005C199.939 36.8872 198.899 36.4472 197.859 36.1805C196.845 35.8872 195.699 35.7405 194.419 35.7405C192.605 35.7405 191.285 36.0872 190.459 36.7805C189.659 37.4472 189.259 38.4738 189.259 39.8605C189.259 42.5272 190.992 43.8605 194.459 43.8605Z" fill="#2C343A"/>
<path d="M209.44 26.5805H212.44V29.4605C213.373 28.2605 214.506 27.3805 215.84 26.8205C217.2 26.2605 218.64 25.9805 220.16 25.9805C222.693 25.9805 224.573 26.6472 225.8 27.9805C227.053 29.3138 227.68 31.1005 227.68 33.3405V45.7805H224.6V33.6205C224.6 31.9672 224.2 30.7005 223.4 29.8205C222.6 28.9138 221.32 28.4605 219.56 28.4605C216.6 28.4605 214.253 29.7938 212.52 32.4605V45.7805H209.44V26.5805Z" fill="#2C343A"/>
<path d="M233.073 16.2205H236.153V45.7805H233.073V16.2205ZM236.833 36.1005L246.233 26.5805H250.153L240.713 36.1005L251.073 45.7805H247.153L236.833 36.1005Z" fill="#2C343A"/>
<path d="M28.8126 45.5024C25.9859 45.5024 23.4259 44.8891 21.1326 43.6624C18.8659 42.4358 17.0659 40.7291 15.7326 38.5424C14.4259 36.3291 13.7726 33.7958 13.7726 30.9424C13.7726 28.0891 14.4259 25.5558 15.7326 23.3424C17.0659 21.1291 18.8659 19.4091 21.1326 18.1824C23.4259 16.9558 25.9859 16.3424 28.8126 16.3424C31.6126 16.3424 34.1459 16.9558 36.4126 18.1824C38.7059 19.4091 40.5059 21.1291 41.8126 23.3424C43.1193 25.5558 43.7726 28.0891 43.7726 30.9424C43.7726 33.7958 43.1193 36.3291 41.8126 38.5424C40.5059 40.7291 38.7059 42.4358 36.4126 43.6624C34.1459 44.8891 31.6126 45.5024 28.8126 45.5024ZM28.8126 38.8624C30.2259 38.8624 31.5192 38.5424 32.6926 37.9024C33.8659 37.2624 34.7993 36.3424 35.4926 35.1424C36.1859 33.9424 36.5326 32.5424 36.5326 30.9424C36.5326 29.3424 36.1859 27.9558 35.4926 26.7824C34.8259 25.5824 33.9059 24.6624 32.7326 24.0224C31.5592 23.3558 30.2526 23.0224 28.8126 23.0224C27.3459 23.0224 26.0259 23.3558 24.8526 24.0224C23.6793 24.6624 22.7459 25.5824 22.0526 26.7824C21.3859 27.9558 21.0526 29.3424 21.0526 30.9424C21.0526 32.5424 21.3859 33.9424 22.0526 35.1424C22.7459 36.3424 23.6793 37.2624 24.8526 37.9024C26.0526 38.5424 27.3726 38.8624 28.8126 38.8624Z" fill="#F15A24"/>
<path d="M46.5648 25.7024H53.3648V28.1024C54.1114 27.2491 55.1648 26.5958 56.5248 26.1424C57.8848 25.6624 59.3914 25.4224 61.0448 25.4224V30.8224C59.2848 30.8224 57.7248 31.0758 56.3648 31.5824C55.0314 32.0891 54.1114 32.8491 53.6048 33.8624V44.9024H46.5648V25.7024Z" fill="#F15A24"/>
<path d="M68.4923 45.5024C66.0923 45.5024 64.1456 44.9291 62.6523 43.7824C61.1856 42.6091 60.4523 40.9824 60.4523 38.9024C60.4523 36.7424 61.1589 35.0891 62.5723 33.9424C64.0123 32.7691 66.0656 32.1824 68.7323 32.1824C69.7723 32.1824 70.8123 32.3024 71.8523 32.5424C72.8923 32.7558 73.7856 33.0491 74.5323 33.4224V33.0224C74.5323 30.9691 72.8523 29.9424 69.4923 29.9424C67.1456 29.9424 64.9989 30.3958 63.0523 31.3024V26.4624C63.9056 26.0624 65.0256 25.7424 66.4123 25.5024C67.7989 25.2358 69.2389 25.1024 70.7323 25.1024C74.3056 25.1024 76.9989 25.8224 78.8123 27.2624C80.6523 28.6758 81.5723 30.6624 81.5723 33.2224V44.9024H74.9723V43.2624C74.2523 43.9558 73.3456 44.5024 72.2523 44.9024C71.1589 45.3024 69.9056 45.5024 68.4923 45.5024ZM70.5723 41.1824C71.3989 41.1824 72.1723 41.0224 72.8923 40.7024C73.6123 40.3558 74.1589 39.9158 74.5323 39.3824V37.7024C73.3856 36.9291 72.0789 36.5424 70.6123 36.5424C69.6789 36.5424 68.9589 36.7424 68.4523 37.1424C67.9456 37.5424 67.6923 38.1291 67.6923 38.9024C67.6923 39.6224 67.9323 40.1824 68.4123 40.5824C68.9189 40.9824 69.6389 41.1824 70.5723 41.1824Z" fill="#F15A24"/>
<path d="M84.9632 25.7024H91.7632V27.8224C92.5899 26.9158 93.5899 26.2358 94.7632 25.7824C95.9365 25.3291 97.1632 25.1024 98.4432 25.1024C101.137 25.1024 103.123 25.8091 104.403 27.2224C105.71 28.6091 106.363 30.5024 106.363 32.9024V44.9024H99.3232V33.8224C99.3232 31.6624 98.3365 30.5824 96.3632 30.5824C95.4565 30.5824 94.6299 30.7958 93.8832 31.2224C93.1365 31.6224 92.5099 32.2491 92.0032 33.1024V44.9024H84.9632V25.7024Z" fill="#F15A24"/>
<path d="M120.208 54.1024C118.928 54.1024 117.635 53.9824 116.328 53.7424C115.048 53.5024 113.941 53.1824 113.008 52.7824V47.9024C115.115 48.8091 117.515 49.2624 120.208 49.2624C122.155 49.2624 123.555 48.8624 124.408 48.0624C125.288 47.2624 125.728 46.0891 125.728 44.5424V43.3824C124.955 44.0491 123.995 44.5691 122.848 44.9424C121.728 45.3158 120.528 45.5024 119.248 45.5024C117.221 45.5024 115.435 45.0758 113.888 44.2224C112.341 43.3691 111.128 42.1691 110.248 40.6224C109.395 39.0758 108.968 37.3024 108.968 35.3024C108.968 33.2758 109.395 31.4891 110.248 29.9424C111.101 28.3958 112.301 27.2091 113.848 26.3824C115.395 25.5291 117.168 25.1024 119.168 25.1024C121.915 25.1024 124.181 25.9424 125.968 27.6224V25.7024H132.768V43.5824C132.768 46.9158 131.741 49.5024 129.688 51.3424C127.661 53.1824 124.501 54.1024 120.208 54.1024ZM121.008 40.0624C122.101 40.0624 123.075 39.7824 123.928 39.2224C124.781 38.6624 125.381 37.9158 125.728 36.9824V33.6224C125.355 32.6891 124.741 31.9558 123.888 31.4224C123.035 30.8624 122.075 30.5824 121.008 30.5824C119.568 30.5824 118.408 31.0091 117.528 31.8624C116.648 32.6891 116.208 33.8224 116.208 35.2624C116.208 36.7291 116.648 37.9024 117.528 38.7824C118.408 39.6358 119.568 40.0624 121.008 40.0624Z" fill="#F15A24"/>
<path d="M147.649 45.5024C143.889 45.5024 140.929 44.6224 138.769 42.8624C136.636 41.1024 135.569 38.6091 135.569 35.3824C135.569 32.2091 136.516 29.7024 138.409 27.8624C140.329 26.0224 143.089 25.1024 146.689 25.1024C148.983 25.1024 150.943 25.5424 152.569 26.4224C154.223 27.2758 155.463 28.4624 156.289 29.9824C157.143 31.4758 157.569 33.1691 157.569 35.0624V37.6624H142.249C142.516 38.7291 143.183 39.5024 144.249 39.9824C145.316 40.4624 146.769 40.7024 148.609 40.7024C149.863 40.7024 151.143 40.5958 152.449 40.3824C153.783 40.1691 154.929 39.8758 155.889 39.5024V44.1424C154.903 44.5424 153.663 44.8624 152.169 45.1024C150.703 45.3691 149.196 45.5024 147.649 45.5024ZM150.929 33.2624C150.823 32.2224 150.396 31.4091 149.649 30.8224C148.903 30.2358 147.876 29.9424 146.569 29.9424C145.289 29.9424 144.276 30.2491 143.529 30.8624C142.783 31.4491 142.356 32.2491 142.249 33.2624H150.929Z" fill="#F15A24"/>
</svg>
